<mxfile host="app.diagrams.net" agent="Mozilla/5.0 (Windows NT 10.0; Win64; x64) AppleWebKit/537.36 (KHTML, like Gecko) Chrome/132.0.0.0 Safari/537.36 Edg/132.0.0.0" version="26.0.4">
  <diagram id="C5RBs43oDa-KdzZeNtuy" name="Page-1">
    <mxGraphModel dx="1868" dy="925" grid="1" gridSize="10" guides="1" tooltips="1" connect="1" arrows="1" fold="1" page="1" pageScale="1" pageWidth="827" pageHeight="1169" math="0" shadow="0">
      <root>
        <mxCell id="WIyWlLk6GJQsqaUBKTNV-0" />
        <mxCell id="WIyWlLk6GJQsqaUBKTNV-1" parent="WIyWlLk6GJQsqaUBKTNV-0" />
        <mxCell id="-Kg_7hBC36pptWZDUtGE-7" style="edgeStyle=orthogonalEdgeStyle;rounded=0;orthogonalLoop=1;jettySize=auto;html=1;entryX=0.5;entryY=0;entryDx=0;entryDy=0;" edge="1" parent="WIyWlLk6GJQsqaUBKTNV-1" source="WIyWlLk6GJQsqaUBKTNV-3" target="-Kg_7hBC36pptWZDUtGE-6">
          <mxGeometry relative="1" as="geometry" />
        </mxCell>
        <mxCell id="WIyWlLk6GJQsqaUBKTNV-3" value="Inicialização/Configuração dos ADC&#39;s, do DHT, do Lora e do Timer" style="rounded=1;whiteSpace=wrap;html=1;fontSize=12;glass=0;strokeWidth=1;shadow=0;" parent="WIyWlLk6GJQsqaUBKTNV-1" vertex="1">
          <mxGeometry x="290" y="90" width="180" height="50" as="geometry" />
        </mxCell>
        <mxCell id="WIyWlLk6GJQsqaUBKTNV-5" value="Não" style="edgeStyle=orthogonalEdgeStyle;rounded=0;html=1;jettySize=auto;orthogonalLoop=1;fontSize=11;endArrow=block;endFill=0;endSize=8;strokeWidth=1;shadow=0;labelBackgroundColor=none;" parent="WIyWlLk6GJQsqaUBKTNV-1" source="WIyWlLk6GJQsqaUBKTNV-6" target="WIyWlLk6GJQsqaUBKTNV-7" edge="1">
          <mxGeometry y="10" relative="1" as="geometry">
            <mxPoint as="offset" />
          </mxGeometry>
        </mxCell>
        <mxCell id="-Kg_7hBC36pptWZDUtGE-33" style="edgeStyle=orthogonalEdgeStyle;rounded=0;orthogonalLoop=1;jettySize=auto;html=1;entryX=0.5;entryY=0;entryDx=0;entryDy=0;" edge="1" parent="WIyWlLk6GJQsqaUBKTNV-1" source="WIyWlLk6GJQsqaUBKTNV-6" target="-Kg_7hBC36pptWZDUtGE-16">
          <mxGeometry relative="1" as="geometry" />
        </mxCell>
        <mxCell id="-Kg_7hBC36pptWZDUtGE-34" value="Sim" style="edgeLabel;html=1;align=center;verticalAlign=middle;resizable=0;points=[];" vertex="1" connectable="0" parent="-Kg_7hBC36pptWZDUtGE-33">
          <mxGeometry x="-0.7894" y="-1" relative="1" as="geometry">
            <mxPoint x="21" y="4" as="offset" />
          </mxGeometry>
        </mxCell>
        <mxCell id="WIyWlLk6GJQsqaUBKTNV-6" value="Dados foram&amp;nbsp;&lt;div&gt;lidos&amp;nbsp;&lt;/div&gt;&lt;div&gt;corretamente?&lt;/div&gt;" style="rhombus;whiteSpace=wrap;html=1;shadow=0;fontFamily=Helvetica;fontSize=12;align=center;strokeWidth=1;spacing=6;spacingTop=-4;" parent="WIyWlLk6GJQsqaUBKTNV-1" vertex="1">
          <mxGeometry x="320" y="500" width="120" height="110" as="geometry" />
        </mxCell>
        <mxCell id="-Kg_7hBC36pptWZDUtGE-17" style="edgeStyle=orthogonalEdgeStyle;rounded=0;orthogonalLoop=1;jettySize=auto;html=1;entryX=1;entryY=0.5;entryDx=0;entryDy=0;" edge="1" parent="WIyWlLk6GJQsqaUBKTNV-1" source="WIyWlLk6GJQsqaUBKTNV-7" target="-Kg_7hBC36pptWZDUtGE-16">
          <mxGeometry relative="1" as="geometry">
            <Array as="points">
              <mxPoint x="540" y="675" />
            </Array>
          </mxGeometry>
        </mxCell>
        <mxCell id="WIyWlLk6GJQsqaUBKTNV-7" value="Variáveis recebem valores de ERRO" style="rounded=1;whiteSpace=wrap;html=1;fontSize=12;glass=0;strokeWidth=1;shadow=0;" parent="WIyWlLk6GJQsqaUBKTNV-1" vertex="1">
          <mxGeometry x="490" y="535" width="120" height="40" as="geometry" />
        </mxCell>
        <mxCell id="-Kg_7hBC36pptWZDUtGE-0" value="INICIO" style="rounded=1;whiteSpace=wrap;html=1;fontSize=12;glass=0;strokeWidth=1;shadow=0;" vertex="1" parent="WIyWlLk6GJQsqaUBKTNV-1">
          <mxGeometry x="320" y="20" width="120" height="40" as="geometry" />
        </mxCell>
        <mxCell id="-Kg_7hBC36pptWZDUtGE-1" value="" style="rounded=0;html=1;jettySize=auto;orthogonalLoop=1;fontSize=11;endArrow=block;endFill=0;endSize=8;strokeWidth=1;shadow=0;labelBackgroundColor=none;edgeStyle=orthogonalEdgeStyle;" edge="1" parent="WIyWlLk6GJQsqaUBKTNV-1">
          <mxGeometry relative="1" as="geometry">
            <mxPoint x="379.86" y="60" as="sourcePoint" />
            <mxPoint x="380" y="90" as="targetPoint" />
          </mxGeometry>
        </mxCell>
        <mxCell id="-Kg_7hBC36pptWZDUtGE-3" value="Transmitter" style="text;strokeColor=none;fillColor=none;html=1;fontSize=24;fontStyle=1;verticalAlign=middle;align=center;" vertex="1" parent="WIyWlLk6GJQsqaUBKTNV-1">
          <mxGeometry x="190" y="20" width="100" height="40" as="geometry" />
        </mxCell>
        <mxCell id="-Kg_7hBC36pptWZDUtGE-5" style="edgeStyle=orthogonalEdgeStyle;rounded=0;orthogonalLoop=1;jettySize=auto;html=1;entryX=0.5;entryY=0;entryDx=0;entryDy=0;" edge="1" parent="WIyWlLk6GJQsqaUBKTNV-1" source="-Kg_7hBC36pptWZDUtGE-4" target="WIyWlLk6GJQsqaUBKTNV-6">
          <mxGeometry relative="1" as="geometry" />
        </mxCell>
        <mxCell id="-Kg_7hBC36pptWZDUtGE-4" value="Lê status de chuva, umidade do solo e temperatura" style="rounded=1;whiteSpace=wrap;html=1;fontSize=12;glass=0;strokeWidth=1;shadow=0;" vertex="1" parent="WIyWlLk6GJQsqaUBKTNV-1">
          <mxGeometry x="290" y="420" width="180" height="50" as="geometry" />
        </mxCell>
        <mxCell id="-Kg_7hBC36pptWZDUtGE-26" style="edgeStyle=orthogonalEdgeStyle;rounded=0;orthogonalLoop=1;jettySize=auto;html=1;entryX=0.5;entryY=0;entryDx=0;entryDy=0;" edge="1" parent="WIyWlLk6GJQsqaUBKTNV-1" source="-Kg_7hBC36pptWZDUtGE-6" target="-Kg_7hBC36pptWZDUtGE-18">
          <mxGeometry relative="1" as="geometry" />
        </mxCell>
        <mxCell id="-Kg_7hBC36pptWZDUtGE-29" value="Sim" style="edgeLabel;html=1;align=center;verticalAlign=middle;resizable=0;points=[];" vertex="1" connectable="0" parent="-Kg_7hBC36pptWZDUtGE-26">
          <mxGeometry x="-0.56" y="-1" relative="1" as="geometry">
            <mxPoint x="21" as="offset" />
          </mxGeometry>
        </mxCell>
        <mxCell id="-Kg_7hBC36pptWZDUtGE-6" value="Sensores e&amp;nbsp;&lt;div&gt;Módulos foram iniciados corretamente?&lt;/div&gt;" style="rhombus;whiteSpace=wrap;html=1;shadow=0;fontFamily=Helvetica;fontSize=12;align=center;strokeWidth=1;spacing=6;spacingTop=-4;" vertex="1" parent="WIyWlLk6GJQsqaUBKTNV-1">
          <mxGeometry x="310" y="160" width="140" height="110" as="geometry" />
        </mxCell>
        <mxCell id="-Kg_7hBC36pptWZDUtGE-14" style="edgeStyle=orthogonalEdgeStyle;rounded=0;orthogonalLoop=1;jettySize=auto;html=1;entryX=1;entryY=0.5;entryDx=0;entryDy=0;" edge="1" parent="WIyWlLk6GJQsqaUBKTNV-1" source="-Kg_7hBC36pptWZDUtGE-11" target="-Kg_7hBC36pptWZDUtGE-0">
          <mxGeometry relative="1" as="geometry">
            <mxPoint x="560" y="40" as="targetPoint" />
            <Array as="points">
              <mxPoint x="560" y="40" />
            </Array>
          </mxGeometry>
        </mxCell>
        <mxCell id="-Kg_7hBC36pptWZDUtGE-11" value="Espera 2 segundos e reinicia a Pi Pico" style="rounded=1;whiteSpace=wrap;html=1;fontSize=12;glass=0;strokeWidth=1;shadow=0;" vertex="1" parent="WIyWlLk6GJQsqaUBKTNV-1">
          <mxGeometry x="500" y="195" width="120" height="40" as="geometry" />
        </mxCell>
        <mxCell id="-Kg_7hBC36pptWZDUtGE-12" style="edgeStyle=orthogonalEdgeStyle;rounded=0;orthogonalLoop=1;jettySize=auto;html=1;entryX=0;entryY=0.5;entryDx=0;entryDy=0;" edge="1" parent="WIyWlLk6GJQsqaUBKTNV-1" source="-Kg_7hBC36pptWZDUtGE-6" target="-Kg_7hBC36pptWZDUtGE-11">
          <mxGeometry relative="1" as="geometry" />
        </mxCell>
        <mxCell id="-Kg_7hBC36pptWZDUtGE-15" value="Não" style="edgeLabel;html=1;align=center;verticalAlign=middle;resizable=0;points=[];" vertex="1" connectable="0" parent="-Kg_7hBC36pptWZDUtGE-12">
          <mxGeometry x="0.0216" y="1" relative="1" as="geometry">
            <mxPoint x="-6" y="-14" as="offset" />
          </mxGeometry>
        </mxCell>
        <mxCell id="-Kg_7hBC36pptWZDUtGE-32" style="edgeStyle=orthogonalEdgeStyle;rounded=0;orthogonalLoop=1;jettySize=auto;html=1;entryX=0;entryY=0.5;entryDx=0;entryDy=0;" edge="1" parent="WIyWlLk6GJQsqaUBKTNV-1" source="-Kg_7hBC36pptWZDUtGE-16" target="-Kg_7hBC36pptWZDUtGE-18">
          <mxGeometry relative="1" as="geometry">
            <Array as="points">
              <mxPoint x="380" y="730" />
              <mxPoint x="250" y="730" />
              <mxPoint x="250" y="350" />
            </Array>
          </mxGeometry>
        </mxCell>
        <mxCell id="-Kg_7hBC36pptWZDUtGE-16" value="Timer aciona,&lt;br&gt;printa na serial e transmite via Lora, ponto a ponto" style="rounded=1;whiteSpace=wrap;html=1;fontSize=12;glass=0;strokeWidth=1;shadow=0;" vertex="1" parent="WIyWlLk6GJQsqaUBKTNV-1">
          <mxGeometry x="320" y="640" width="120" height="70" as="geometry" />
        </mxCell>
        <mxCell id="-Kg_7hBC36pptWZDUtGE-28" style="edgeStyle=orthogonalEdgeStyle;rounded=0;orthogonalLoop=1;jettySize=auto;html=1;entryX=0.5;entryY=0;entryDx=0;entryDy=0;" edge="1" parent="WIyWlLk6GJQsqaUBKTNV-1" source="-Kg_7hBC36pptWZDUtGE-18" target="-Kg_7hBC36pptWZDUtGE-4">
          <mxGeometry relative="1" as="geometry" />
        </mxCell>
        <mxCell id="-Kg_7hBC36pptWZDUtGE-31" value="Sim" style="edgeLabel;html=1;align=center;verticalAlign=middle;resizable=0;points=[];" vertex="1" connectable="0" parent="-Kg_7hBC36pptWZDUtGE-28">
          <mxGeometry x="-0.3124" y="-1" relative="1" as="geometry">
            <mxPoint x="21" y="-9" as="offset" />
          </mxGeometry>
        </mxCell>
        <mxCell id="-Kg_7hBC36pptWZDUtGE-18" value="Se passaram 3 segundos?" style="rhombus;whiteSpace=wrap;html=1;shadow=0;fontFamily=Helvetica;fontSize=12;align=center;strokeWidth=1;spacing=6;spacingTop=-4;" vertex="1" parent="WIyWlLk6GJQsqaUBKTNV-1">
          <mxGeometry x="310" y="300" width="140" height="100" as="geometry" />
        </mxCell>
        <mxCell id="-Kg_7hBC36pptWZDUtGE-24" value="Nada acontece" style="rounded=1;whiteSpace=wrap;html=1;fontSize=12;glass=0;strokeWidth=1;shadow=0;" vertex="1" parent="WIyWlLk6GJQsqaUBKTNV-1">
          <mxGeometry x="500" y="330" width="120" height="40" as="geometry" />
        </mxCell>
        <mxCell id="-Kg_7hBC36pptWZDUtGE-27" style="edgeStyle=orthogonalEdgeStyle;rounded=0;orthogonalLoop=1;jettySize=auto;html=1;entryX=0;entryY=0.5;entryDx=0;entryDy=0;" edge="1" parent="WIyWlLk6GJQsqaUBKTNV-1" source="-Kg_7hBC36pptWZDUtGE-18" target="-Kg_7hBC36pptWZDUtGE-24">
          <mxGeometry relative="1" as="geometry" />
        </mxCell>
        <mxCell id="-Kg_7hBC36pptWZDUtGE-30" value="Não" style="edgeLabel;html=1;align=center;verticalAlign=middle;resizable=0;points=[];" vertex="1" connectable="0" parent="-Kg_7hBC36pptWZDUtGE-27">
          <mxGeometry x="-0.0229" y="-1" relative="1" as="geometry">
            <mxPoint y="-11" as="offset" />
          </mxGeometry>
        </mxCell>
        <mxCell id="-Kg_7hBC36pptWZDUtGE-35" style="edgeStyle=orthogonalEdgeStyle;rounded=0;orthogonalLoop=1;jettySize=auto;html=1;entryX=0.5;entryY=0;entryDx=0;entryDy=0;" edge="1" parent="WIyWlLk6GJQsqaUBKTNV-1" source="-Kg_7hBC36pptWZDUtGE-36" target="-Kg_7hBC36pptWZDUtGE-50">
          <mxGeometry relative="1" as="geometry" />
        </mxCell>
        <mxCell id="-Kg_7hBC36pptWZDUtGE-36" value="Inicialização/Configuração dos ADC&#39;s, do DHT, do Lora e do Timer" style="rounded=1;whiteSpace=wrap;html=1;fontSize=12;glass=0;strokeWidth=1;shadow=0;" vertex="1" parent="WIyWlLk6GJQsqaUBKTNV-1">
          <mxGeometry x="780" y="90" width="180" height="50" as="geometry" />
        </mxCell>
        <mxCell id="-Kg_7hBC36pptWZDUtGE-37" value="Não" style="edgeStyle=orthogonalEdgeStyle;rounded=0;html=1;jettySize=auto;orthogonalLoop=1;fontSize=11;endArrow=block;endFill=0;endSize=8;strokeWidth=1;shadow=0;labelBackgroundColor=none;" edge="1" parent="WIyWlLk6GJQsqaUBKTNV-1" source="-Kg_7hBC36pptWZDUtGE-40" target="-Kg_7hBC36pptWZDUtGE-42">
          <mxGeometry y="10" relative="1" as="geometry">
            <mxPoint as="offset" />
          </mxGeometry>
        </mxCell>
        <mxCell id="-Kg_7hBC36pptWZDUtGE-38" style="edgeStyle=orthogonalEdgeStyle;rounded=0;orthogonalLoop=1;jettySize=auto;html=1;entryX=0.5;entryY=0;entryDx=0;entryDy=0;" edge="1" parent="WIyWlLk6GJQsqaUBKTNV-1" source="-Kg_7hBC36pptWZDUtGE-40" target="-Kg_7hBC36pptWZDUtGE-56">
          <mxGeometry relative="1" as="geometry" />
        </mxCell>
        <mxCell id="-Kg_7hBC36pptWZDUtGE-39" value="Sim" style="edgeLabel;html=1;align=center;verticalAlign=middle;resizable=0;points=[];" vertex="1" connectable="0" parent="-Kg_7hBC36pptWZDUtGE-38">
          <mxGeometry x="-0.7894" y="-1" relative="1" as="geometry">
            <mxPoint x="21" y="4" as="offset" />
          </mxGeometry>
        </mxCell>
        <mxCell id="-Kg_7hBC36pptWZDUtGE-40" value="Dados foram&amp;nbsp;&lt;div&gt;lidos&amp;nbsp;&lt;/div&gt;&lt;div&gt;corretamente?&lt;/div&gt;" style="rhombus;whiteSpace=wrap;html=1;shadow=0;fontFamily=Helvetica;fontSize=12;align=center;strokeWidth=1;spacing=6;spacingTop=-4;" vertex="1" parent="WIyWlLk6GJQsqaUBKTNV-1">
          <mxGeometry x="810" y="500" width="120" height="110" as="geometry" />
        </mxCell>
        <mxCell id="-Kg_7hBC36pptWZDUtGE-41" style="edgeStyle=orthogonalEdgeStyle;rounded=0;orthogonalLoop=1;jettySize=auto;html=1;entryX=1;entryY=0.5;entryDx=0;entryDy=0;" edge="1" parent="WIyWlLk6GJQsqaUBKTNV-1" source="-Kg_7hBC36pptWZDUtGE-42" target="-Kg_7hBC36pptWZDUtGE-56">
          <mxGeometry relative="1" as="geometry">
            <Array as="points">
              <mxPoint x="1030" y="675" />
            </Array>
          </mxGeometry>
        </mxCell>
        <mxCell id="-Kg_7hBC36pptWZDUtGE-42" value="Variáveis recebem valores de ERRO" style="rounded=1;whiteSpace=wrap;html=1;fontSize=12;glass=0;strokeWidth=1;shadow=0;" vertex="1" parent="WIyWlLk6GJQsqaUBKTNV-1">
          <mxGeometry x="980" y="535" width="120" height="40" as="geometry" />
        </mxCell>
        <mxCell id="-Kg_7hBC36pptWZDUtGE-43" value="INICIO" style="rounded=1;whiteSpace=wrap;html=1;fontSize=12;glass=0;strokeWidth=1;shadow=0;" vertex="1" parent="WIyWlLk6GJQsqaUBKTNV-1">
          <mxGeometry x="810" y="20" width="120" height="40" as="geometry" />
        </mxCell>
        <mxCell id="-Kg_7hBC36pptWZDUtGE-44" value="" style="rounded=0;html=1;jettySize=auto;orthogonalLoop=1;fontSize=11;endArrow=block;endFill=0;endSize=8;strokeWidth=1;shadow=0;labelBackgroundColor=none;edgeStyle=orthogonalEdgeStyle;" edge="1" parent="WIyWlLk6GJQsqaUBKTNV-1">
          <mxGeometry relative="1" as="geometry">
            <mxPoint x="869.86" y="60" as="sourcePoint" />
            <mxPoint x="870" y="90" as="targetPoint" />
          </mxGeometry>
        </mxCell>
        <mxCell id="-Kg_7hBC36pptWZDUtGE-45" value="Receiver" style="text;strokeColor=none;fillColor=none;html=1;fontSize=24;fontStyle=1;verticalAlign=middle;align=center;" vertex="1" parent="WIyWlLk6GJQsqaUBKTNV-1">
          <mxGeometry x="680" y="20" width="100" height="40" as="geometry" />
        </mxCell>
        <mxCell id="-Kg_7hBC36pptWZDUtGE-46" style="edgeStyle=orthogonalEdgeStyle;rounded=0;orthogonalLoop=1;jettySize=auto;html=1;entryX=0.5;entryY=0;entryDx=0;entryDy=0;" edge="1" parent="WIyWlLk6GJQsqaUBKTNV-1" source="-Kg_7hBC36pptWZDUtGE-47" target="-Kg_7hBC36pptWZDUtGE-40">
          <mxGeometry relative="1" as="geometry" />
        </mxCell>
        <mxCell id="-Kg_7hBC36pptWZDUtGE-47" value="Lê status de chuva, umidade do solo e temperatura" style="rounded=1;whiteSpace=wrap;html=1;fontSize=12;glass=0;strokeWidth=1;shadow=0;" vertex="1" parent="WIyWlLk6GJQsqaUBKTNV-1">
          <mxGeometry x="780" y="420" width="180" height="50" as="geometry" />
        </mxCell>
        <mxCell id="-Kg_7hBC36pptWZDUtGE-48" style="edgeStyle=orthogonalEdgeStyle;rounded=0;orthogonalLoop=1;jettySize=auto;html=1;entryX=0.5;entryY=0;entryDx=0;entryDy=0;" edge="1" parent="WIyWlLk6GJQsqaUBKTNV-1" source="-Kg_7hBC36pptWZDUtGE-50" target="-Kg_7hBC36pptWZDUtGE-59">
          <mxGeometry relative="1" as="geometry" />
        </mxCell>
        <mxCell id="-Kg_7hBC36pptWZDUtGE-49" value="Sim" style="edgeLabel;html=1;align=center;verticalAlign=middle;resizable=0;points=[];" vertex="1" connectable="0" parent="-Kg_7hBC36pptWZDUtGE-48">
          <mxGeometry x="-0.56" y="-1" relative="1" as="geometry">
            <mxPoint x="21" as="offset" />
          </mxGeometry>
        </mxCell>
        <mxCell id="-Kg_7hBC36pptWZDUtGE-50" value="Sensores e&amp;nbsp;&lt;div&gt;Módulos foram iniciados corretamente?&lt;/div&gt;" style="rhombus;whiteSpace=wrap;html=1;shadow=0;fontFamily=Helvetica;fontSize=12;align=center;strokeWidth=1;spacing=6;spacingTop=-4;" vertex="1" parent="WIyWlLk6GJQsqaUBKTNV-1">
          <mxGeometry x="800" y="160" width="140" height="110" as="geometry" />
        </mxCell>
        <mxCell id="-Kg_7hBC36pptWZDUtGE-51" style="edgeStyle=orthogonalEdgeStyle;rounded=0;orthogonalLoop=1;jettySize=auto;html=1;entryX=1;entryY=0.5;entryDx=0;entryDy=0;" edge="1" parent="WIyWlLk6GJQsqaUBKTNV-1" source="-Kg_7hBC36pptWZDUtGE-52" target="-Kg_7hBC36pptWZDUtGE-43">
          <mxGeometry relative="1" as="geometry">
            <mxPoint x="1050" y="40" as="targetPoint" />
            <Array as="points">
              <mxPoint x="1050" y="40" />
            </Array>
          </mxGeometry>
        </mxCell>
        <mxCell id="-Kg_7hBC36pptWZDUtGE-52" value="Espera 2 segundos e reinicia a Pi Pico" style="rounded=1;whiteSpace=wrap;html=1;fontSize=12;glass=0;strokeWidth=1;shadow=0;" vertex="1" parent="WIyWlLk6GJQsqaUBKTNV-1">
          <mxGeometry x="990" y="195" width="120" height="40" as="geometry" />
        </mxCell>
        <mxCell id="-Kg_7hBC36pptWZDUtGE-53" style="edgeStyle=orthogonalEdgeStyle;rounded=0;orthogonalLoop=1;jettySize=auto;html=1;entryX=0;entryY=0.5;entryDx=0;entryDy=0;" edge="1" parent="WIyWlLk6GJQsqaUBKTNV-1" source="-Kg_7hBC36pptWZDUtGE-50" target="-Kg_7hBC36pptWZDUtGE-52">
          <mxGeometry relative="1" as="geometry" />
        </mxCell>
        <mxCell id="-Kg_7hBC36pptWZDUtGE-54" value="Não" style="edgeLabel;html=1;align=center;verticalAlign=middle;resizable=0;points=[];" vertex="1" connectable="0" parent="-Kg_7hBC36pptWZDUtGE-53">
          <mxGeometry x="0.0216" y="1" relative="1" as="geometry">
            <mxPoint x="-6" y="-14" as="offset" />
          </mxGeometry>
        </mxCell>
        <mxCell id="-Kg_7hBC36pptWZDUtGE-55" style="edgeStyle=orthogonalEdgeStyle;rounded=0;orthogonalLoop=1;jettySize=auto;html=1;entryX=0;entryY=0.5;entryDx=0;entryDy=0;" edge="1" parent="WIyWlLk6GJQsqaUBKTNV-1" source="-Kg_7hBC36pptWZDUtGE-56" target="-Kg_7hBC36pptWZDUtGE-59">
          <mxGeometry relative="1" as="geometry">
            <Array as="points">
              <mxPoint x="870" y="730" />
              <mxPoint x="740" y="730" />
              <mxPoint x="740" y="350" />
            </Array>
          </mxGeometry>
        </mxCell>
        <mxCell id="-Kg_7hBC36pptWZDUtGE-56" value="Timer aciona,&lt;br&gt;printa na serial e transmite via Lora, ponto a ponto" style="rounded=1;whiteSpace=wrap;html=1;fontSize=12;glass=0;strokeWidth=1;shadow=0;" vertex="1" parent="WIyWlLk6GJQsqaUBKTNV-1">
          <mxGeometry x="810" y="640" width="120" height="70" as="geometry" />
        </mxCell>
        <mxCell id="-Kg_7hBC36pptWZDUtGE-57" style="edgeStyle=orthogonalEdgeStyle;rounded=0;orthogonalLoop=1;jettySize=auto;html=1;entryX=0.5;entryY=0;entryDx=0;entryDy=0;" edge="1" parent="WIyWlLk6GJQsqaUBKTNV-1" source="-Kg_7hBC36pptWZDUtGE-59" target="-Kg_7hBC36pptWZDUtGE-47">
          <mxGeometry relative="1" as="geometry" />
        </mxCell>
        <mxCell id="-Kg_7hBC36pptWZDUtGE-58" value="Sim" style="edgeLabel;html=1;align=center;verticalAlign=middle;resizable=0;points=[];" vertex="1" connectable="0" parent="-Kg_7hBC36pptWZDUtGE-57">
          <mxGeometry x="-0.3124" y="-1" relative="1" as="geometry">
            <mxPoint x="21" y="-9" as="offset" />
          </mxGeometry>
        </mxCell>
        <mxCell id="-Kg_7hBC36pptWZDUtGE-59" value="Se passaram 3 segundos?" style="rhombus;whiteSpace=wrap;html=1;shadow=0;fontFamily=Helvetica;fontSize=12;align=center;strokeWidth=1;spacing=6;spacingTop=-4;" vertex="1" parent="WIyWlLk6GJQsqaUBKTNV-1">
          <mxGeometry x="800" y="300" width="140" height="100" as="geometry" />
        </mxCell>
        <mxCell id="-Kg_7hBC36pptWZDUtGE-60" value="Nada acontece" style="rounded=1;whiteSpace=wrap;html=1;fontSize=12;glass=0;strokeWidth=1;shadow=0;" vertex="1" parent="WIyWlLk6GJQsqaUBKTNV-1">
          <mxGeometry x="990" y="330" width="120" height="40" as="geometry" />
        </mxCell>
        <mxCell id="-Kg_7hBC36pptWZDUtGE-61" style="edgeStyle=orthogonalEdgeStyle;rounded=0;orthogonalLoop=1;jettySize=auto;html=1;entryX=0;entryY=0.5;entryDx=0;entryDy=0;" edge="1" parent="WIyWlLk6GJQsqaUBKTNV-1" source="-Kg_7hBC36pptWZDUtGE-59" target="-Kg_7hBC36pptWZDUtGE-60">
          <mxGeometry relative="1" as="geometry" />
        </mxCell>
        <mxCell id="-Kg_7hBC36pptWZDUtGE-62" value="Não" style="edgeLabel;html=1;align=center;verticalAlign=middle;resizable=0;points=[];" vertex="1" connectable="0" parent="-Kg_7hBC36pptWZDUtGE-61">
          <mxGeometry x="-0.0229" y="-1" relative="1" as="geometry">
            <mxPoint y="-11" as="offset" />
          </mxGeometry>
        </mxCell>
      </root>
    </mxGraphModel>
  </diagram>
</mxfile>
